<?xml version="1.0" encoding="UTF-8" standalone="no"?>
<!-- Created with Inkscape (http://www.inkscape.org/) -->

<svg
   version="1.1"
   id="svg586"
   xml:space="preserve"
   width="337.953"
   height="339.987"
   xmlns:inkscape="http://www.inkscape.org/namespaces/inkscape"
   xmlns:sodipodi="http://sodipodi.sourceforge.net/DTD/sodipodi-0.dtd"
   xmlns="http://www.w3.org/2000/svg"
   xmlns:svg="http://www.w3.org/2000/svg"><defs
     id="defs590" /><sodipodi:namedview
     id="namedview588"
     pagecolor="#ffffff"
     bordercolor="#000000"
     borderopacity="0.25"
     inkscape:showpageshadow="2"
     inkscape:pageopacity="0.0"
     inkscape:pagecheckerboard="0"
     inkscape:deskcolor="#d1d1d1" /><inkscape:clipboard
     min="1456.024,383.054"
     max="1793.977,723.041"
     geom-min="1456.024,383.054"
     geom-max="1793.977,723.041" /><g
     id="g592"
     transform="translate(-1456.024,-383.054)"><path
       class="cls-2"
       d="m 1754.731,697.965 7.946,-20.837 7.933,20.837 z m 16.193,-32.669 h -16.5 l -23.058,56.5 h 14.294 l 5.252,-13.788 h 23.523 l 5.254,13.788 h 14.288 z m -116.38,46.676 c -9.311,0 -16.847,-8.4 -16.847,-18.769 0,-10.369 7.536,-18.774 16.847,-18.774 9.3,0 16.843,8.406 16.843,18.774 0,10.368 -7.547,18.769 -16.843,18.769 m 0,-48.613 a 29.841,29.841 0 1 0 29.842,29.844 29.846,29.846 0 0 0 -29.842,-29.844 m -117.753,48.613 c -9.3,0 -16.838,-8.4 -16.838,-18.769 0,-10.369 7.541,-18.774 16.838,-18.774 9.297,0 16.849,8.406 16.849,18.774 0,10.368 -7.542,18.769 -16.849,18.769 m 0,-48.613 a 29.841,29.841 0 1 0 29.841,29.844 29.835,29.835 0 0 0 -29.841,-29.844 m 73.757,1.937 -14.621,22.859 -14.633,-22.855 h -14.3 l 22.635,35.431 V 721.8 h 12.587 v -21.069 l 22.632,-35.435 z m 123.826,0 h -48.3 v 10.834 h 17.889 v 45.67 h 12.6 v -45.67 h 17.811 z m -278.35,10.834 h 17.9 v 45.67 h 12.594 v -45.67 h 17.816 V 665.3 h -48.305 z"
       id="path44"
       style="fill:#eb0a1e" /><path
       class="cls-2"
       d="m 1624.7,496.882 c -4.466,0 -8.822,-0.2 -13.022,-0.58 0.335,17.254 6.038,30.985 13.022,30.985 6.984,0 12.683,-13.731 13.021,-30.985 -4.203,0.377 -8.554,0.58 -13.021,0.58 z"
       id="path46"
       style="fill:#eb0a1e" /><path
       class="cls-2"
       d="m 1624.7,462.1 c -5.522,0 -10.238,8.579 -12.142,20.69 3.885,0.351 7.95,0.545 12.142,0.545 4.192,0 8.255,-0.194 12.134,-0.545 -1.9,-12.108 -6.616,-20.69 -12.134,-20.69 z"
       id="path48"
       style="fill:#eb0a1e" /><path
       class="cls-2"
       d="m 1605.141,481.88 c 2.834,-19.009 10.521,-32.637 19.561,-32.637 9.04,0 16.721,13.628 19.556,32.637 17.213,-2.687 29.244,-8.8 29.244,-15.927 0,-9.6 -21.848,-17.382 -48.8,-17.382 -26.952,0 -48.8,7.783 -48.8,17.382 0,7.124 12.027,13.24 29.239,15.927 z"
       id="path50"
       style="fill:#eb0a1e" /><path
       class="cls-2"
       d="m 1603.975,498.044 c 0,-0.892 0.015,-1.776 0.034,-2.658 -24.447,-3.648 -41.983,-13.571 -41.983,-25.245 a 11.587,11.587 0 0 1 0.109,-1.569 c -6.232,7.482 -9.8,16.179 -9.8,25.459 0,26.467 29.006,48.182 65.988,50.443 -8.323,-6.338 -14.348,-24.724 -14.348,-46.43 z"
       id="path52"
       style="fill:#eb0a1e" /><path
       class="cls-2"
       d="m 1511.721,383.054 v 225.955 h 225.953 V 383.054 Z m 112.981,167.8 c -46.8,0 -84.737,-24.546 -84.737,-54.819 0,-21.518 19.164,-40.139 47.055,-49.106 10.487,-3.371 23.537,-5.363 37.682,-5.363 14.145,0 27.193,1.992 37.678,5.363 27.886,8.973 47.05,27.588 47.05,49.106 0,30.276 -37.937,54.822 -84.73,54.822 z"
       id="path54"
       style="fill:#eb0a1e" /><path
       class="cls-2"
       d="m 1687.373,470.141 c 0,11.674 -17.538,21.6 -41.981,25.245 0.02,0.882 0.029,1.766 0.029,2.658 0,21.708 -6.019,40.092 -14.339,46.43 36.975,-2.261 65.982,-23.976 65.982,-50.443 0,-9.28 -3.573,-17.977 -9.8,-25.459 a 11.59,11.59 0 0 1 0.109,1.569 z"
       id="path56"
       style="fill:#eb0a1e" /></g></svg>
